<svg xmlns="http://www.w3.org/2000/svg" xmlns:xlink="http://www.w3.org/1999/xlink" width="256" height="256" viewBox="0 0 256 256"><defs><symbol id="a" viewBox="0 0 119.7 188.5"><path fill="#304a93" d="M87.2 54.8h-.4v93.5h.4a12.8 12.8 0 0 0 12.7-12.8V67.6a12.7 12.7 0 0 0-12.7-12.8z"/><path fill="#203061" d="M74.4 67.6v67.9a12.8 12.8 0 0 0 12.4 12.8V54.8a12.8 12.8 0 0 0-12.4 12.8z"/><path fill="#304a93" d="M30.9 65.8h-.4v93.5h.4a12.8 12.8 0 0 0 12.7-12.8V78.6a12.7 12.7 0 0 0-12.7-12.8z"/><path fill="#203061" d="M18.1 78.6v67.9a12.8 12.8 0 0 0 12.4 12.8V65.8a12.8 12.8 0 0 0-12.4 12.8z"/><path fill="#304a93" d="M55.7 0h-.5v188.5h.5a15.7 15.7 0 0 0 15.7-15.7V15.7A15.8 15.8 0 0 0 55.7 0z"/><path fill="#203061" d="M40 15.7v157.1a15.8 15.8 0 0 0 15.2 15.7V0A15.8 15.8 0 0 0 40 15.7z"/><path fill="none" stroke="#304a93" stroke-linecap="round" stroke-miterlimit="10" stroke-width="14" d="M68.5 41.2h11.3s4.9.6 4.9-5.5v-9.3m11.8 66.8h11.3s4.9.6 4.9-5.5v-9.3"/><path fill="none" stroke="#203061" stroke-linecap="round" stroke-miterlimit="10" stroke-width="13" d="M22.7 103.2H11.4s-4.9.6-4.9-5.5v-9.3"/></symbol><symbol id="b" viewBox="0 0 127.2 86.4"><path fill="#f6eeda" d="M123.7 28.1a18.9 18.9 0 0 1 3.5-1.3c-.1-.9-.1-1.7-.2-2.6a17.8 17.8 0 0 1-13.6 3c1.6-9.3 7-13.3 12.1-14.9L123.9 0H3.3L.4 22.2a45.5 45.5 0 0 0-.4 8.2 24.3 24.3 0 0 1 10.8-1S8.5 37.5 2 42.2l.9 2.4c14.5-3.8 21.5 11 21.5 11s-8.2 2.8-15.9-.1A48.2 48.2 0 0 0 31.4 73l-2.8 7.3a4.5 4.5 0 0 0 8.4 3.2l3.2-8.3a55.2 55.2 0 0 0 7.1.5h32.6a44.9 44.9 0 0 0 6.4-.4l3.2 8.2a4.4 4.4 0 1 0 8.3-3.2l-2.7-7.1a47.2 47.2 0 0 0 30.3-31.9c-5.5 1-17.2 1.6-22.7-10.2 12.4-5.8 20.2 1.5 23.7 6.2l.6-4.3a20.9 20.9 0 0 1-3.3-4.9zM102.4 9.3s-8 10-17.7 3.8c6.9-10.7 17.7-3.8 17.7-3.8zm-8.6 8.1S88.5 36 71.4 33.2c3.2-18.9 22.4-15.8 22.4-15.8zm-9-13.9s.9 12.8-10.4 14.9C72.2 5.9 84.8 3.5 84.8 3.5zm-12 16.9S67.5 39 50.4 36.2c3.2-18.9 22.4-15.8 22.4-15.8zm-21 3S46.5 42 29.4 39.2c3.2-18.9 22.4-15.8 22.4-15.8zm-29-10.9s.9 12.8-10.4 14.9c-2.2-12.5 10.4-14.9 10.4-14.9zM8.4 42.2c3.2-18.9 22.4-15.8 22.4-15.8S25.5 45 8.4 42.2zm10.3.9c17.4-8.1 25.7 9.5 25.7 9.5s-18.3 6.2-25.7-9.5zm7.4 12c12.7-.7 13.5 12.2 13.5 12.2s-12.9-.7-13.5-12.2zm11.8 2.2c10-7.9 18 2.2 18 2.2s-10.9 6.8-18-2.2zm1.8-17.2c17.4-8.1 25.7 9.5 25.7 9.5s-18.3 6.2-25.7-9.5zm28.4 8c12.7-.7 13.5 12.2 13.5 12.2s-12.9-.7-13.5-12.2zm-7.4-11c17.4-8.1 25.7 9.5 25.7 9.5s-18.3 6.2-25.7-9.5zm46.7 6.5s-18.3 6.2-25.7-9.5c17.4-8.1 25.7 9.5 25.7 9.5zm-15-13.4c3.2-18.9 22.4-15.8 22.4-15.8S109.5 33 92.4 30.2z"/><path fill="#95a5ca" d="M30.8 26.4S11.6 23.3 8.4 42.2C25.5 45 30.8 26.4 30.8 26.4zm13.6 26.2S36.1 35 18.7 43.1c7.4 15.7 25.7 9.5 25.7 9.5zm7.4-29.2s-19.2-3.1-22.4 15.8C46.5 42 51.8 23.4 51.8 23.4zM39.7 40.1c7.4 15.7 25.7 9.5 25.7 9.5S57.1 32 39.7 40.1zm33.1-19.7s-19.2-3.1-22.4 15.8C67.5 39 72.8 20.4 72.8 20.4zM60.7 37.1c7.4 15.7 25.7 9.5 25.7 9.5S78.1 29 60.7 37.1zm10.7-3.9C88.5 36 93.8 17.4 93.8 17.4s-19.2-3.1-22.4 15.8zm10.3.9c7.4 15.7 25.7 9.5 25.7 9.5S99.1 26 81.7 34.1zm10.7-3.9c17.1 2.8 22.4-15.8 22.4-15.8s-19.2-3.1-22.4 15.8zm10.3.9c5.5 11.8 17.2 11.2 22.7 10.2.4-1.3.7-2.7 1-4-3.5-4.7-11.3-12-23.7-6.2zm10.7-3.9a17.8 17.8 0 0 0 13.6-3c-.1-.7-.1-1.3-.2-2l-1.3-9.9c-5.1 1.6-10.5 5.6-12.1 14.9zM127 33c.2-2 .2-4.1.2-6.2a18.9 18.9 0 0 0-3.5 1.3A20.9 20.9 0 0 0 127 33zM10.8 29.4a24.3 24.3 0 0 0-10.8 1 51.1 51.1 0 0 0 2 11.8c6.5-4.7 8.8-12.8 8.8-12.8zm13.6 26.2s-7-14.8-21.5-11a48.8 48.8 0 0 0 5.6 10.9c7.7 2.9 15.9.1 15.9.1zm1.7-.5c.6 11.5 13.5 12.2 13.5 12.2s-.8-12.9-13.5-12.2z"/><path fill="#95a5ca" d="M68.1 48.1c.6 11.5 13.5 12.2 13.5 12.2s-.8-12.9-13.5-12.2zM84.8 3.5S72.2 5.9 74.4 18.4C85.7 16.3 84.8 3.5 84.8 3.5zm-62 9s-12.6 2.4-10.4 14.9c11.3-2.1 10.4-14.9 10.4-14.9zm79.6-3.2s-10.8-6.9-17.7 3.8c9.7 6.2 17.7-3.8 17.7-3.8zm-64.5 48c7.1 9 18 2.2 18 2.2s-8-10.1-18-2.2z"/></symbol></defs><path fill="#f4a172" d="M0 0h256v256H0z"/><use width="119.7" height="188.51" transform="matrix(.98 0 0 .98 71.6 26)" xlink:href="#a"/><use width="127.2" height="86.39" transform="matrix(.98 0 0 .98 65.8 145.5)" xlink:href="#b"/></svg>