<svg xmlns="http://www.w3.org/2000/svg" width="256" height="256" viewBox="0 0 256 256"><title>cactus</title><g id="Symbols"><path d="M159.3,73.5h-.4V173.8h.4A13.8,13.8,0,0,0,173,160.1V87.2A13.7,13.7,0,0,0,159.3,73.5Z" fill="#304a93"/><path d="M145.6,87.2v72.9a13.8,13.8,0,0,0,13.3,13.7V73.5A13.7,13.7,0,0,0,145.6,87.2Z" fill="#203061"/><path d="M98.9,85.3h-.4V185.6h.4a13.8,13.8,0,0,0,13.7-13.7V99A13.7,13.7,0,0,0,98.9,85.3Z" fill="#304a93"/><path d="M85.2,99v72.9a13.8,13.8,0,0,0,13.3,13.7V85.3A13.7,13.7,0,0,0,85.2,99Z" fill="#203061"/><path d="M125.5,14.7H125V216.9h.5a16.8,16.8,0,0,0,16.8-16.8V31.5A16.9,16.9,0,0,0,125.5,14.7Z" fill="#304a93"/><path d="M108.7,31.5V200.1A16.9,16.9,0,0,0,125,216.9V14.7A16.9,16.9,0,0,0,108.7,31.5Z" fill="#203061"/><path d="M139.2,58.9h12.2s5.3.6,5.3-5.9V43" fill="none" stroke="#304a93" stroke-linecap="round" stroke-miterlimit="10" stroke-width="14"/><path d="M169.3,114.7h12.1s5.3.6,5.3-5.9v-10" fill="none" stroke="#304a93" stroke-linecap="round" stroke-miterlimit="10" stroke-width="14"/><path d="M90.1,125.4H78s-5.3.6-5.3-5.9v-10" fill="none" stroke="#203061" stroke-linecap="round" stroke-miterlimit="10" stroke-width="13"/><path d="M192.2,176a34.4,34.4,0,0,1,3.7-1.4c-.1-.9-.1-1.8-.2-2.8a18.4,18.4,0,0,1-14.6,3.2c1.7-9.9,7.5-14.2,13-15.9l-1.8-13.2H63l-3.1,23.8a52.3,52.3,0,0,0-.4,8.8A26.7,26.7,0,0,1,71,177.4s-2.5,8.7-9.4,13.7l.9,2.6c15.6-4,23.1,11.8,23.1,11.8s-8.8,3-17-.1a51.5,51.5,0,0,0,24.5,18.8l-3,7.8a5,5,0,0,0,2.8,6.3,4.9,4.9,0,0,0,6.2-2.8l3.4-9a49,49,0,0,0,7.7.6h34.9a50.9,50.9,0,0,0,6.9-.5l3.4,8.9a4.8,4.8,0,1,0,9-3.5l-2.9-7.6A50.8,50.8,0,0,0,194,190.2c-5.9,1.1-18.4,1.7-24.3-10.9,13.3-6.3,21.6,1.6,25.3,6.6.3-1.5.5-3,.7-4.6A19.5,19.5,0,0,1,192.2,176Zm-22.9-20.1s-8.6,10.7-19,4C157.7,148.5,169.3,155.9,169.3,155.9Zm-9.3,8.6s-5.6,20-23.9,17C139.5,161.2,160,164.5,160,164.5Zm-9.5-14.8s.9,13.7-11.2,15.9C136.9,152.2,150.5,149.7,150.5,149.7Zm-13,18s-5.6,20-23.9,17C116.9,164.4,137.5,167.7,137.5,167.7ZM115,171s-5.6,19.9-24,16.9C94.4,167.6,115,171,115,171ZM83.9,159.3s1,13.8-11.1,15.9C70.3,161.9,83.9,159.3,83.9,159.3ZM68.5,191.1c3.4-20.2,24-16.9,24-16.9S86.8,194.2,68.5,191.1Zm11,1c18.7-8.7,27.6,10.2,27.6,10.2S87.4,209,79.5,192.1Zm7.9,13c13.6-.8,14.5,13,14.5,13S88.1,217.3,87.4,205.1Zm12.7,2.2c10.7-8.4,19.3,2.5,19.3,2.5S107.7,217,100.1,207.3Zm2-18.4c18.6-8.7,27.5,10.2,27.5,10.2S110,205.7,102.1,188.9Zm30.4,8.6c13.6-.7,14.4,13.1,14.4,13.1S133.2,209.8,132.5,197.5Zm-7.9-11.8c18.6-8.7,27.5,10.1,27.5,10.1S132.5,202.5,124.6,185.7Zm50.1,6.9s-19.7,6.7-27.6-10.1C165.7,173.8,174.7,192.6,174.7,192.6Zm-16.1-14.4c3.4-20.2,24-16.9,24-16.9S176.9,181.3,158.6,178.2Z" fill="#95a5ca"/><path d="M92.5,174.2s-20.6-3.3-24,16.9C86.8,194.2,92.5,174.2,92.5,174.2Z" fill="#f6eeda"/><path d="M107.1,202.3s-8.9-18.9-27.6-10.2C87.4,209,107.1,202.3,107.1,202.3Z" fill="#f6eeda"/><path d="M115,171s-20.6-3.4-24,16.9C109.4,190.9,115,171,115,171Z" fill="#f6eeda"/><path d="M102.1,188.9c7.9,16.8,27.5,10.2,27.5,10.2S120.7,180.2,102.1,188.9Z" fill="#f6eeda"/><path d="M137.5,167.7s-20.6-3.3-23.9,17C131.9,187.7,137.5,167.7,137.5,167.7Z" fill="#f6eeda"/><path d="M124.6,185.7c7.9,16.8,27.5,10.1,27.5,10.1S143.2,177,124.6,185.7Z" fill="#f6eeda"/><path d="M136.1,181.5c18.3,3,23.9-17,23.9-17S139.5,161.2,136.1,181.5Z" fill="#f6eeda"/><path d="M147.1,182.5c7.9,16.8,27.6,10.1,27.6,10.1S165.7,173.8,147.1,182.5Z" fill="#f6eeda"/><path d="M158.6,178.2c18.3,3.1,24-16.9,24-16.9S162,158,158.6,178.2Z" fill="#f6eeda"/><path d="M169.7,179.3c5.9,12.6,18.4,12,24.3,10.9.4-1.4.7-2.9,1-4.3C191.3,180.9,183,173,169.7,179.3Z" fill="#f6eeda"/><path d="M181.1,175a18.4,18.4,0,0,0,14.6-3.2c-.1-.7-.1-1.4-.2-2.1l-1.4-10.6C188.6,160.8,182.8,165.1,181.1,175Z" fill="#f6eeda"/><path d="M195.7,181.3c.2-2.2.2-4.4.2-6.7a34.4,34.4,0,0,0-3.7,1.4A19.5,19.5,0,0,0,195.7,181.3Z" fill="#f6eeda"/><path d="M71,177.4a26.7,26.7,0,0,0-11.5,1.1,51.9,51.9,0,0,0,2.1,12.6C68.5,186.1,71,177.4,71,177.4Z" fill="#f6eeda"/><path d="M85.6,205.5s-7.5-15.8-23.1-11.8a50.1,50.1,0,0,0,6.1,11.7C76.8,208.5,85.6,205.5,85.6,205.5Z" fill="#f6eeda"/><path d="M87.4,205.1c.7,12.2,14.5,13,14.5,13S101,204.3,87.4,205.1Z" fill="#f6eeda"/><path d="M132.5,197.5c.7,12.3,14.4,13.1,14.4,13.1S146.1,196.8,132.5,197.5Z" fill="#f6eeda"/><path d="M150.5,149.7s-13.6,2.5-11.2,15.9C151.4,163.4,150.5,149.7,150.5,149.7Z" fill="#f6eeda"/><path d="M83.9,159.3s-13.6,2.6-11.1,15.9C84.9,173.1,83.9,159.3,83.9,159.3Z" fill="#f6eeda"/><path d="M169.3,155.9s-11.6-7.4-19,4C160.7,166.6,169.3,155.9,169.3,155.9Z" fill="#f6eeda"/><path d="M100.1,207.3c7.6,9.7,19.3,2.5,19.3,2.5S110.8,198.9,100.1,207.3Z" fill="#f6eeda"/></g></svg>