<svg xmlns="http://www.w3.org/2000/svg"><symbol id="three" viewBox="0 0 100 100"><path d="M50 0a50 50 0 1 0 50 50A50 50 0 0 0 50 0zm13.4 53.3c1.6 2.7 2.4 6.2 2.4 10.6 0 5.9-1.3 10.6-3.9 13.9s-6.5 4.9-12 4.9-9-1.4-11.7-4.3-4-6.9-4-12.1v-2.2h8.4v1.4a16.8 16.8 0 0 0 1.7 7.6c1.1 1.7 2.9 2.6 5.6 2.6s4.8-1 5.8-3 1.6-4.9 1.6-8.8a15.9 15.9 0 0 0-2-8.5c-1.3-2-3.5-3.1-6.4-3.3h-1.2v-8.6h1.1c3-.1 5.2-.9 6.5-2.4s2-3.9 2-7.4-.5-5.5-1.6-7.1-3-2.4-5.7-2.4-4.6.8-5.7 2.6a16.6 16.6 0 0 0-1.7 7.7v1.3h-8.4v-2.1c0-5.3 1.4-9.3 4-12.2s6.6-4.2 11.8-4.2 9.1 1.4 11.8 4.3 4 6.9 4 12.1-.8 6.9-2.5 9.2a12.3 12.3 0 0 1-6.7 4.9 11.8 11.8 0 0 1 6.8 5.5z"/></symbol><symbol id="instagram" viewBox="0 0 100 100"><path d="M61.8 35.8a2.9 2.9 0 0 0-2.7 1.9 2.8 2.8 0 0 0 1.2 3 2.9 2.9 0 0 0 2.4.1 2.7 2.7 0 0 0 1.5-2.8 2.7 2.7 0 0 0-2.4-2.2z"/><path d="M50 0a50 50 0 1 0 50 50A50 50 0 0 0 50 0zm25.9 75.6c-3.5 3.7-9.3 3.9-14.4 3.9H38c-4.9 0-10.4-.3-13.8-3.8s-3.5-8.7-3.6-13.5V38.5c0-4.7.1-9.7 3.1-13.3a13.3 13.3 0 0 1 7.3-4.1 41 41 0 0 1 8.6-.6h21.1a37.8 37.8 0 0 1 8.9.7 12.8 12.8 0 0 1 7.5 4.6c2.3 3.2 2.3 7.3 2.3 11.2.1 8.3.1 16.5.1 24.8 0 4.9-.2 10.3-3.6 13.8z"/><path d="M52.9 39.3a10.6 10.6 0 0 0-5-.2 12.1 12.1 0 0 0-3.2 1.1A11.2 11.2 0 1 0 57 58.8a11.6 11.6 0 0 0 4-11 11.3 11.3 0 0 0-8.1-8.5zm3.2 14.6a7.2 7.2 0 1 1 .3-7.2 7.1 7.1 0 0 1-.3 7.2z"/><path d="M60.3 28.5c-3.4-.5-7-.1-10.5-.1s-6.9-.3-10.3.2-6.9 1.9-8.9 4.8-2.2 6.9-2.3 10.6v10.6a44.1 44.1 0 0 0 .4 7.3 12.3 12.3 0 0 0 3.3 6.5 11.6 11.6 0 0 0 6.1 2.9 32.1 32.1 0 0 0 6.9.5h9a37.8 37.8 0 0 0 8.2-.6 12.5 12.5 0 0 0 6.9-4c2.5-3.1 2.6-7.5 2.6-11.4V44.4c0-3.8-.1-8-2.3-11.1s-5.6-4.3-9.1-4.8zm7.5 27.8c0 3.2-.1 6.7-2.3 9a8.4 8.4 0 0 1-4.4 2.2 17 17 0 0 1-5 .3H43.7c-3.2 0-6.7-.1-9-2.3s-2.5-6-2.5-9.3V44a21.9 21.9 0 0 1 .4-5.1 8.4 8.4 0 0 1 2.2-4.4c2.3-2.2 5.8-2.3 9-2.3h13.1c2.7 0 5.6.1 7.8 1.7a8.9 8.9 0 0 1 2.7 4.8 25.9 25.9 0 0 1 .4 5.6z"/></symbol><symbol id="heart" viewBox="0 0 100 100"><path d="M50 0a50 50 0 1 0 50 50A50 50 0 0 0 50 0zm27.6 52.4a32.3 32.3 0 0 1-5.3 5.8L52 77.4a3.1 3.1 0 0 1-2 1.1 3.1 3.1 0 0 1-2-1.1l-23.1-22a16.5 16.5 0 0 1-4.2-17 16.6 16.6 0 0 1 13.7-10.8A16.6 16.6 0 0 1 50 35.5a16.2 16.2 0 1 1 27.6 16.9z"/></symbol><symbol id="twitter" viewBox="0 0 100 100"><path d="M50 0a50 50 0 1 0 50 50A50 50 0 0 0 50 0zm33.1 32.9l-1.6 2-.7.8a24.4 24.4 0 0 1-2.9 2.7l-.8.6a.4.4 0 0 0-.2.5v2.2a19.3 19.3 0 0 1-.1 2.4l-.3 1.8c-.1.5-.1 1-.2 1.5a5 5 0 0 0-.2 1.2c-.1.1-.1.2-.1.4l-.3.9c-.1.5-.3 1-.4 1.5s-.3.9-.4 1.4-.3.8-.4 1.2l-.8 1.8-.7 1.6-.8 1.4-1.1 1.9a12.7 12.7 0 0 1-1.3 1.9l-1.1 1.5-1.5 1.8-.6.6-.7.8a29.8 29.8 0 0 1-2.7 2.3l-1.1.9-1.4 1-1.8 1.1-1.5.8-1.1.6-1.5.7-1.2.5-1.6.5-1.9.6-1.3.3-1.1.2h-.5l-1.9.3h-.7l-2.2.2h-4.7l-2.1-.2-1.4-.1-1.8-.4-1.8-.4-2.5-.9-2.5-.9-.9-.4-.7-.4-1.9-.9-.9-.6-.3-.2a.1.1 0 0 0-.1-.1h3.9l2-.2 1.3-.2a3.5 3.5 0 0 0 1.4-.3l1-.2 1-.3L33 70l1.2-.4 1.4-.7a16.5 16.5 0 0 0 2.5-1.5l1.1-.8h.4l-.2-.2h-.1a5.5 5.5 0 0 1-1.8-.2l-1.7-.4-1.7-.8-2-1.1-1.1-1-.3-.3a9 9 0 0 1-1.5-1.9 9.5 9.5 0 0 1-1-1.7l-.5-1.2c0-.1.1-.3.3-.2h1.7a4.8 4.8 0 0 0 1.2 0h2.4c.1-.1.1 0 .2 0h.1a.1.1 0 0 0-.1-.1c-.3-.3-.8-.2-1.2-.4l-1-.4-1.4-.6-1.6-1a8.8 8.8 0 0 1-2.2-2.1l-1.2-1.7-.8-1.5-.4-1.2c-.1-.6-.3-1.2-.4-1.8s-.1-1.2-.2-1.8.1-.3.4-.2a8.5 8.5 0 0 0 2.2.9 8 8 0 0 0 1.5.3l1.4.2h.1c0 .1.1 0 .2 0h-.2L27.6 45l-1.5-1.6-1.1-1.5a10.5 10.5 0 0 1-1.2-2.9 11.6 11.6 0 0 1-.4-1.8 22.9 22.9 0 0 1-.2-2.5 7.7 7.7 0 0 0 .2-1.5 1.9 1.9 0 0 0 .1-.8c.1-.1.1-.3.2-.5l.3-.9c.2-.4.3-.9.5-1.3a1.3 1.3 0 0 1 .4-.6c0-.2.1-.1.2 0l1.8 1.9 1.8 1.8 1.9 1.6 2.1 1.6 1.2.8 1.5.9 1.4.7 3.1 1.4 2.6.9 1.2.4 1.8.4 2.2.4 1.7.3h1.8c.2 0 .3 0 .2-.2a4.9 4.9 0 0 1-.1-1.2 3.4 3.4 0 0 1-.1-1v-1.5c.1-.4.1-.9.2-1.3a5.3 5.3 0 0 1 .3-1.2 8.8 8.8 0 0 1 .5-1.5 19.8 19.8 0 0 1 1.1-2 11.8 11.8 0 0 1 2.3-2.7l.8-.6 1.4-.9 2-.9 1.3-.4 1.8-.2h1.8a7.1 7.1 0 0 1 2.1.3l1.6.5 1.3.5a11.7 11.7 0 0 1 2.6 1.7l.9.9c.2.1.3.2.5.1l1.4-.3 1.5-.5 2.6-1 2-1.1h.3v.3l-.6 1a10.9 10.9 0 0 1-.8 1.5 2.4 2.4 0 0 1-.6.8L78 33l-.8.7-1.1.6c0 .1-.1.1-.1.2h.2l1.3-.2.9-.2h.6l.9-.3 1.3-.3 1.6-.7h.4s-.1 0-.1.1z"/></symbol><symbol id="one" viewBox="0 0 100 100"><path d="M50 0a50 50 0 1 0 50 50A50 50 0 0 0 50 0zm5.8 82.1h-8.5V29a35.4 35.4 0 0 1-4.7 1.1l-6.4 1.2v-6.4c6.4-1.6 10.8-3.9 13.2-7h6.4z"/></symbol><symbol id="two" viewBox="0 0 100 100"><path d="M50 0a50 50 0 1 0 50 50A50 50 0 0 0 50 0zm15 41.1a26.4 26.4 0 0 1-2.2 5.3c-.8 1.5-2.2 3.6-4 6.3L44.1 75.3h20.3v7.1H34.1v-6l16.3-25.5 1.6-2.4a60.3 60.3 0 0 0 4.1-7.3 18.8 18.8 0 0 0 1.2-7.1 13.9 13.9 0 0 0-1.5-7.1 5.3 5.3 0 0 0-4.9-2.4c-5.1 0-7.6 3.9-7.6 11.8v2.1h-8.5v-2.2c0-6 1.3-10.6 3.7-13.9s6.5-4.8 12-4.8 8.9 1.5 11.5 4.3 3.9 7 3.9 12.3a24 24 0 0 1-.9 6.9z"/></symbol><symbol id="phone" viewBox="0 0 100 100"><path d="M50 0a50 50 0 1 0 50 50A50 50 0 0 0 50 0zm23 71.2a5.6 5.6 0 0 1-1 1.5 11.2 11.2 0 0 1-2 1.8l-1.9 1.4-2.3 1.3-1.9.6-1.4.3a4.8 4.8 0 0 1-1.2 0l-1.9-.2a7.6 7.6 0 0 1-2-.6l-1.4-.6a28.8 28.8 0 0 1-3.8-2.2l-1.6-1.3-1.7-1.3-.9-.9a15.9 15.9 0 0 1-1.3-1.3l-1.4-1.4-1.2-1.4-1.5-1.7-1.2-1.5-1.4-1.9-1.3-1.7-1.5-2.1c-.5-.8-1-1.6-1.4-2.4a9.5 9.5 0 0 1-1-1.7c-.5-.8-.9-1.6-1.3-2.4l-1.1-2.2a8.2 8.2 0 0 1-.9-1.9 22.9 22.9 0 0 1-1-2.3l-.9-2.2-.6-1.8a.4.4 0 0 0-.1-.3c-.1-.5-.3-1-.4-1.5a11.6 11.6 0 0 0-.4-1.8c-.1-.5-.1-1-.2-1.4s-.1-1.3-.2-1.9v-2a7.7 7.7 0 0 1 .2-1.5 12.5 12.5 0 0 1 .7-2.6 8.2 8.2 0 0 1 1.2-2l1.2-1.3a8.6 8.6 0 0 1 1.8-1.4l1-.9 1.6-1 2-1.1a7 7 0 0 1 2-.8h.9a2.7 2.7 0 0 1 1.7.6 6.1 6.1 0 0 1 .7 1c.4.9.9 1.8 1.4 2.7l.7 1.5 1.5 2.9c.5 1.1 1.1 2.1 1.6 3.2a3.6 3.6 0 0 1 .2 1 1.3 1.3 0 0 1 .1.6 3.2 3.2 0 0 1-.6 1.7 4.9 4.9 0 0 1-1.3 1.2l-1.2.6-2.1 1-1.6.9a2.8 2.8 0 0 0-.8 1.5 4.6 4.6 0 0 0 .2 2 16.7 16.7 0 0 0 .8 2 7.5 7.5 0 0 0 .7 1.2l.9 1.4.9 1.4c.6 1 1.3 2 2 3a16.3 16.3 0 0 0 1.1 1.7l1.2 1.9.9 1.5 1.2 2 .9 1.3.9 1.4 1 1 1 .6a1.6 1.6 0 0 0 1.2.3 2.8 2.8 0 0 0 1.3-.4l1.3-1 1.1-.9 1.4-1.2a3.4 3.4 0 0 1 1.4-.5 3.1 3.1 0 0 1 1.9.3 3.2 3.2 0 0 1 1.3 1 3.9 3.9 0 0 0 .8 1l1.2 1.4.8 1 1.1 1.3.8 1 .8 1 .7.8.9 1.1.5.7a1.1 1.1 0 0 1 .3.8 2.5 2.5 0 0 1-.1 1.1z"/></symbol><symbol id="search" viewBox="0 0 100 100"><path d="M66.8 43.9c-.1-.7-.3-1.5-.5-2.3a18.2 18.2 0 0 0-1.9-4.3 24.3 24.3 0 0 0-2.4-3.2l-1.9-1.8-2-1.4a10.5 10.5 0 0 0-3-1.5l-2.4-.8-2.1-.4A11.8 11.8 0 0 0 48 28l-2.2.2-2 .3a16.9 16.9 0 0 0-3.6 1.2 22.8 22.8 0 0 0-3 1.7c-.6.5-1.3.9-1.9 1.5l-2.1 2.2a18.2 18.2 0 0 0-1.5 2.3 12.7 12.7 0 0 0-1.5 3.1 14.6 14.6 0 0 0-.9 3.6l-.3 2.3a16.2 16.2 0 0 0 .1 2.2v.2c.1.4.1.8.2 1.2a11.8 11.8 0 0 0 .4 2 15.4 15.4 0 0 0 1.1 3 12.6 12.6 0 0 0 1.8 3.2 19.3 19.3 0 0 0 2.7 3l2.3 1.8a17.6 17.6 0 0 0 3.9 1.9 13.8 13.8 0 0 0 4 1l2.8.2h2.1l2.1-.5a17 17 0 0 0 3.2-1l2.6-1.4a20.2 20.2 0 0 0 3.2-2.6l.7-.7 1.1-1.3 1.3-2.1a17.3 17.3 0 0 0 1.4-3.2 13 13 0 0 0 .8-3.4l.3-2.6c0-.6-.1-1.3-.1-1.9s-.1-1-.2-1.5zm-26.9 6.5a11.4 11.4 0 0 0 1 1.9l.8.9v.2l-1.3 1.3-.5.5-.4.5-.7.6-.9 1a.4.4 0 0 1-.6 0 17 17 0 0 1-2.3-3 17.8 17.8 0 0 1-1.2-2.9c-.1-.6-.3-1.3-.4-1.9a9.8 9.8 0 0 1-.2-3.4 10.9 10.9 0 0 1 .4-2.6 14.2 14.2 0 0 1 1.4-3.6 12.7 12.7 0 0 1 1.3-1.9c.3-.5.7-.8 1-1.3a.5.5 0 0 1 .5 0l3.8 3.9c.1.1.2.2 0 .3a10.6 10.6 0 0 0-1.7 2.6 9 9 0 0 0-.6 2.2 13.4 13.4 0 0 0-.1 2 8.3 8.3 0 0 0 .7 2.7z"/><path d="M50 0a50 50 0 1 0 50 50A50 50 0 0 0 50 0zm31 74.6a5.7 5.7 0 0 1-1.1 2.8 6 6 0 0 1-2.2 2 4.1 4.1 0 0 1-1.9.5h-1.4a5.3 5.3 0 0 1-1.7-.4 6 6 0 0 1-2.1-1.4c-3.1-3.1-6.2-6.3-9.4-9.4-.1-.2-.3-.2-.5-.1l-2.6 1.3a10.9 10.9 0 0 1-2.3.9l-2.9.8-2.1.3h-5l-3.9-.7-3.2-1-2.9-1.4h-.2l-2.3-1.5-1.5-1.2-1.6-1.5A27.5 27.5 0 0 1 28 62a19.6 19.6 0 0 1-2-3 26.3 26.3 0 0 1-1.5-3.5l-.9-2.9-.3-1.8a12.3 12.3 0 0 1-.2-1.9 2.8 2.8 0 0 1-.1-.9 24.4 24.4 0 0 1 .1-2.7 10.1 10.1 0 0 1 .3-2.5 21.8 21.8 0 0 1 1.1-4.4 35.4 35.4 0 0 1 1.6-3.4l1.2-1.9 1.6-2.1a12.2 12.2 0 0 1 1.5-1.7l2.5-2.2a26.1 26.1 0 0 1 3-2 27.5 27.5 0 0 1 5-2 11.4 11.4 0 0 1 2.5-.6l1.5-.3h1.9a16.2 16.2 0 0 1 2.2 0h2.1l3.6.7 3 1 2 1 3.1 1.9 2.5 2.1 2.1 2.3 1.6 2.1 1.3 2.3a22.6 22.6 0 0 1 1.7 4.3 15.5 15.5 0 0 1 .6 2.3l.3 2.1a1.7 1.7 0 0 1 .1.7v1.7a12 12 0 0 1 0 1.9l-.3 2.7c-.2 1.1-.5 2.2-.8 3.3a18.8 18.8 0 0 1-1.2 3 22.6 22.6 0 0 1-1.1 2.2c-.1.2-.1.2 0 .4l9.6 9.5a5.9 5.9 0 0 1 1.7 3.3 8.1 8.1 0 0 1 .1 1.6z"/></symbol><symbol id="email" viewBox="0 0 100 100"><path d="M50 0a50 50 0 1 0 50 50A50 50 0 0 0 50 0zM22.5 27.8h55.3c0 .1-.1.1-.1.2l-1.3.9-1.9 1.5-1.5 1.2-1.6 1.3-1.3 1.1-1.2.9-1.4 1.1-1.9 1.5-.3.3-1.6 1.3-1.3 1-1.7 1.3-1.5 1.3-3.1 2.4-2.4 2-2.9 2.3-.5.4c-.2.2-.4.2-.5.1l-2.2-1.8-2.4-1.9-1.9-1.5-2.1-1.7-1.8-1.4-2.5-2-1.2-1.1-2-1.5-1.8-1.4-1.6-1.3-1.6-1.3-2.1-1.7-1.9-1.5-2.2-1.8c-.1 0-.1-.1-.2-.2zM20.8 69h-.2v-.2c0-.4-.1-.9-.1-1.3v-36c0-.1-.1-.2 0-.2s0-.3.2-.1l2 1.8 1.7 1.4 1.2 1 3 2.4 2.4 2 2.8 2.3 2.2 1.8 2.3 1.8 1.6 1.4.9.7c.2.1.2.3 0 .5a4.6 4.6 0 0 0-.7.7l-2.2 2.3-1.8 1.8-1.7 1.8-1.5 1.5a22.8 22.8 0 0 1-2.2 2.2l-1.6 1.7-1.7 1.8-1.4 1.5-2 2-1.8 1.9zm56.1 3.3H22.6l2.3-2.3 3.5-3.6 2.7-2.7 2-2.1 1.7-1.7 3-3.1 2.3-2.4 2.7-2.7.8-.9c.2-.2.4-.2.5 0l1.4 1.2 1.9 1.5 1.8 1.5.6.5h.4l1.2-1 1.8-1.6a6.9 6.9 0 0 0 1.3-1.1l1.3-1.1h.4l1.6 1.7h.1c.8.8 1.6 1.5 2.3 2.3l2.6 2.7 2.5 2.6a15.9 15.9 0 0 1 1.3 1.3l2.7 2.8 2.3 2.4 1.3 1.4 2.6 2.7 1.4 1.5a.1.1 0 0 1 .1.1zm2.7-4.5c0 .3-.1.7-.1 1.1s-.1.2-.2.1l-2.4-2.5-1.2-1.2-1.6-1.7-1.4-1.4-1.5-1.6-1.4-1.5-1.5-1.5-1.3-1.3-1.6-1.7-1.3-1.3-1.5-1.7a15.9 15.9 0 0 1-1.3-1.3l-1.6-1.6-.5-.6a.2.2 0 0 1 0-.3l1-.8 1.4-1.2 1.7-1.3 1.3-1.1 1.7-1.4 1.4-1.1 1.6-1.3 1.4-1.1 1.3-1.1 1.4-1.2 1.1-.8 1.1-.9 2-1.6 1.7-1.4.3-.2c0 .1.1.2.1.3 0 12.1 0 24.1-.1 36.2z"/></symbol><symbol id="checkmark" viewBox="0 0 100 100"><path d="M50 0a50 50 0 1 0 50 50A50 50 0 0 0 50 0zm27 28.8a8.7 8.7 0 0 1-1.4 2.7l-29.7 44a6.9 6.9 0 0 1-2.1 2.4 4.2 4.2 0 0 1-3.3.5 8.2 8.2 0 0 1-3.2-2.3L24 62.8a9 9 0 0 1-2.4-3.2 4.4 4.4 0 0 1 1.2-4.7 4.7 4.7 0 0 1 4.7-.8 10.4 10.4 0 0 1 2.6 2.1L40.9 67q13.5-20.2 27.2-40.4a8.5 8.5 0 0 1 2.1-2.5 4.4 4.4 0 0 1 6.8 4.7z"/></symbol><symbol id="cart" viewBox="0 0 100 100"><path d="M50 0a50 50 0 1 0 50 50A50 50 0 0 0 50 0zm-5.3 74.7a3.4 3.4 0 0 1-1.1 1.8 2.4 2.4 0 0 1-.9.6 4.4 4.4 0 0 1-1.6.2 3.4 3.4 0 0 1-1.4-.2 3.6 3.6 0 0 1 0-6.6 3.6 3.6 0 0 1 5 4.2zm20.4 2.2l-.9.3h-2.1a4 4 0 0 1-2.3-3 3.6 3.6 0 0 1 5.2-3.7 3.7 3.7 0 0 1 2 3.2 3.6 3.6 0 0 1-1.9 3.2zM75.8 37l-5.1 20.6a4.5 4.5 0 0 1-.6 1.2c-.4.5-1.2.5-1.9.5H38.1c.5 1.8 1 3.6 1.4 5.4h26.6a5.1 5.1 0 0 1 2.1.3 1.6 1.6 0 0 1 0 3.1 5.1 5.1 0 0 1-2.1.3H38.8a2.8 2.8 0 0 1-2-.6 2 2 0 0 1-.6-1.3l-9-36.1h-6.1c-1.2-.1-2.8-.4-3-1.6a1.9 1.9 0 0 1 1.1-1.8 5.6 5.6 0 0 1 2.2-.3H28a2.5 2.5 0 0 1 1.7.4 2.2 2.2 0 0 1 .8 1.5l1.4 5.4h41.9a2.4 2.4 0 0 1 1.5.3c.8.5.7 1.7.5 2.7z"/></symbol><symbol id="facebook" viewBox="0 0 100 100"><path d="M50 0a50 50 0 1 0 50 50A50 50 0 0 0 50 0zm26.5 73.7a3.3 3.3 0 0 1-.4 1.4l-.5.7a3.1 3.1 0 0 1-1.3.6h-14c-.2 0-.2 0-.2-.2v-20c0-.2 0-.2.2-.2h6.4c.3 0 .3 0 .4-.3a3.8 3.8 0 0 1 .1-1 1.3 1.3 0 0 1 .1-.6 3.1 3.1 0 0 1 .1-1v-.5a1.5 1.5 0 0 0 .1-.7.6.6 0 0 0 .1-.4c0-.3.1-.5.1-.8a.9.9 0 0 1 .1-.5 1.7 1.7 0 0 1 .1-.7V49a2.8 2.8 0 0 0 .1-.9c.1-.1 0-.1-.1-.1h-7.6c-.2 0-.2-.1-.2-.2v-5.3a3.7 3.7 0 0 1 .4-1.8 2.3 2.3 0 0 1 1-1.2 3.3 3.3 0 0 1 1.3-.4h5.4c.1 0 .1-.1.1-.2v-7.2h-8.2l-1.9.4-1.2.5-1.1.7-.8.6-.5.4a10.9 10.9 0 0 0-1.3 1.7 16 16 0 0 0-1 2.3l-.3 1a2.2 2.2 0 0 1-.1.8 5.7 5.7 0 0 1-.1 1.3v6.4c0 .2 0 .2-.2.2H45c-.1 0-.1 0-.1.1v7.8c0 .1 0 .1.1.1h6.6c.2 0 .2 0 .2.2v20.1c0 .2 0 .2-.2.2H26.2a2 2 0 0 1-1.1-.3l-.9-.6a3.1 3.1 0 0 1-.6-1.3 2.8 2.8 0 0 1-.1-.9v-47a2.9 2.9 0 0 1 .4-1.6l.5-.6a3.1 3.1 0 0 1 1.3-.6h48a3.1 3.1 0 0 1 1.3.3l.8.6a3.1 3.1 0 0 1 .6 1.3c0 .1.1.2.1.4v47.5z"/></symbol><symbol id="four" viewBox="0 0 100 100"><path d="M50.7 57.4V28.2L40.2 57.4h10.5z"/><path d="M50 0a50 50 0 1 0 50 50A50 50 0 0 0 50 0zm16 64.9h-7.2v17.2h-8.1V64.9H32V56l16.8-38.1h10v39.5H66z"/></symbol></svg>