<svg id="stripe-vase" xmlns="http://www.w3.org/2000/svg" xmlns:xlink="http://www.w3.org/1999/xlink" width="256" height="256" viewBox="0 0 256 256"><defs><symbol id="Stretched_Vase" data-name="Stretched Vase" viewBox="0 0 61 178"><path d="M40,22V0H21V22L1.9,43.9A7.3,7.3,0,0,0,0,48.8V166a12,12,0,0,0,12,12H49a12,12,0,0,0,12-12V48.8a7.3,7.3,0,0,0-1.9-4.9Z" fill="#222f62"/><path d="M24,29,11.5,41.5S6,47,6,53v9" fill="#5c72b7"/><path d="M6,152v14s-1,8,10,8H34S6,173,6,152Z" fill="#5c72b7"/></symbol><symbol id="Geometric_Vase" data-name="Geometric Vase" viewBox="0 0 96 148"><polygon points="38 0 57 17 57 29 83 49 89 91 57 148 36 148 0 105 0 61 31 33 38 0" fill="#222f62"/><polygon points="38 0 64 17 64 29 90 49 96 91 64 148 36 148 7 105 7 61 38 33 38 0" fill="#334991"/></symbol><symbol id="Leaf_1" data-name="Leaf 1" viewBox="0 0 26.5 54.4"><path d="M25.2,54.3l1.2-18c.2-4.2.5-8.7-1.3-12.6s-4.4-6.1-7.4-8.3-6.3-4.1-9.1-6.7S3.7,3.8,3.5,0V.3C4.3,9.1,6.5,24,12,31.5A115.6,115.6,0,0,1,25.2,54.3Z" fill="#334991"/><path d="M12,31.5C6.5,24,4.3,9.1,3.5.3,3.5,5.4-.1,19.1,0,23.8A31,31,0,0,0,3.2,37.5a30.3,30.3,0,0,0,9.5,10.3,74.7,74.7,0,0,0,12.5,6.6h0A115.6,115.6,0,0,0,12,31.5Z" fill="#222f62"/></symbol><symbol id="Leaf_2" data-name="Leaf 2" viewBox="0 0 23.2 41.8"><path d="M6.6,1A60.5,60.5,0,0,0,.8,15.3C-.5,20.6-.3,26.3,2.3,31s8,8,12.9,10.8l.9-1.1A58.2,58.2,0,0,0,9.6,21.5,28.3,28.3,0,0,1,6.6,1Z" fill="#222f62"/><path d="M22.6,22.3c-1.4-4.5-5.5-7.5-9.1-10.5S7,4.7,7.1,0L6.6,1a28.3,28.3,0,0,0,3,20.5,58.2,58.2,0,0,1,6.5,19.2,41.7,41.7,0,0,0,5.4-7.8C23,29.6,23.7,25.7,22.6,22.3Z" fill="#334991"/></symbol><symbol id="Leaf_3" data-name="Leaf 3" viewBox="0 0 21.5 45.4"><path d="M11.5.3a11.2,11.2,0,0,1-.4,9.3c-1.4,2.9-3.6,5.3-5.7,7.8S1.3,22.6.5,25.7C-1.1,31.6,1.7,38,.8,43.9c4.3-9,12.9-18.6,15.1-24.4S13.9,4.8,11.5.3Z" fill="#222f62"/><path d="M21.2,16.1c-1-6-5.3-12.2-9.8-16.1a.4.4,0,0,0,.1.3c2.4,4.5,6.5,13.4,4.4,19.2S5.1,34.9.8,43.9L.5,45.4c3.8-5.7,11.3-7.7,16-12.6A19.9,19.9,0,0,0,21.2,16.1Z" fill="#334991"/></symbol></defs><title>leaf-vases</title><use width="61" height="178" transform="translate(133 32.6) scale(1.14)" xlink:href="#Stretched_Vase"/><use width="96" height="148" transform="translate(56.2 111.2) scale(0.83)" xlink:href="#Geometric_Vase"/><use width="26.5" height="54.41" transform="translate(68.3 52.9)" xlink:href="#Leaf_1"/><use width="23.2" height="41.8" transform="translate(112.4 63.4) rotate(27.8)" xlink:href="#Leaf_2"/><use width="21.5" height="45.41" transform="translate(85.2 28.5) rotate(-14.4)" xlink:href="#Leaf_3"/></svg>