<svg height="256" viewBox="0 0 256 256" width="256" xmlns="http://www.w3.org/2000/svg"><path d="m185.9 145.3c5.9-8.3 6.6-18.5 6.8-28.3s.3-19.5-5.6-26.7c-4.5-5.3-11.1-6.1-17.7-5.8l8.5 69.5a50.7 50.7 0 0 0 8-8.7z" fill="none"/><path d="m219 163.3c10.5-17.1 12-38.9 11.4-58.5-.5-17.2-4.5-34.8-16.8-47.5s-28.4-14.7-44.8-14.1l-3-25.1h-113.4l-16.8 137.9 155.4 35.8c10.9-7.8 21-17.2 28-28.5zm-46.9-93.4c8.8-.3 17.8.8 23.7 7.9 8 9.6 7.9 24 7.6 35.8s-1.3 27-9.2 38.1a66.4 66.4 0 0 1 -10.7 11.8z" fill="#222f62"/><path d="m29.2 208.8a27.2 27.2 0 0 0 27 30.5h105.8a27.2 27.2 0 0 0 27-30.5l-.4-3.1-154.7-35.7z" fill="#5972b7"/></svg>