<svg id="stripe-vase" xmlns="http://www.w3.org/2000/svg" xmlns:xlink="http://www.w3.org/1999/xlink" width="256" height="256" viewBox="0 0 256 256"><defs><symbol id="Stripe_vase" data-name="Stripe vase" viewBox="0 0 100.7 149.6"><path d="M71.2,124.8c-6.8,1.5-12.8,5.2-19.8,5.8s-15.7-3-23.8-2.8a53.9,53.9,0,0,0-13.2,2.4,52,52,0,0,0,19.1,10.4,4.9,4.9,0,0,0-2.5,4.2,4.8,4.8,0,0,0,4.8,4.8H65.3a4.8,4.8,0,0,0,4.9-4.8,4.9,4.9,0,0,0-2.7-4.3,50.4,50.4,0,0,0,18-9.7C81.6,126.6,76.9,123.5,71.2,124.8Z" fill="#5b72b7"/><path d="M49.7,105.2c4.8-.1,9.5-2.8,14-4.1A57.2,57.2,0,0,1,78,98.6c4.5-.2,8.8.6,13.3,1.4s6.9.6,9.4-.7A37.9,37.9,0,0,0,94.5,79c-4,3.9-10.6,6.5-14.8,8.3-8.2,3.7-17.1,6.2-26.3,6S34.6,90.1,26,86c-6.1-2.9-11.9-6.5-17.9-9.7a31.7,31.7,0,0,0-3.2,4.9c7,3.6,13.4,8.2,19.9,12.7S40.9,105.3,49.7,105.2Z" fill="#5b72b7"/><path d="M69.9,83.7a71,71,0,0,0,11.7-5c1.9-1.1,6.8-3.1,8.7-5.3A51.2,51.2,0,0,0,66.7,58.8h.1c-5.7-1.4-7-5.5-7.2-7.9V32.7a20.6,20.6,0,0,0-9.3,11.5c-2,5.5-5.3,7.3-9.4,7.9-.5,2.4-2.1,5.5-6.9,6.7h0A53.1,53.1,0,0,0,12.9,70.9c10.4,5.5,20.3,12,32.1,14.4A47.9,47.9,0,0,0,69.9,83.7Z" fill="#5b72b7"/><path d="M44.2,40.2a23.6,23.6,0,0,1,6.1-9.6,28.8,28.8,0,0,1,9.3-5.9V9.6h5.7a4.8,4.8,0,0,0,4.9-4.8h0A4.9,4.9,0,0,0,65.3,0H35.8A4.9,4.9,0,0,0,31,4.8h0a4.8,4.8,0,0,0,4.8,4.8h5.3V45.1C42.9,44.2,43.4,42.5,44.2,40.2Z" fill="#5b72b7"/><path d="M86.8,106.2a44.4,44.4,0,0,0-19.5,1.2c-5,1.3-9.7,3.8-14.8,4.6-9.5,1.4-19.5-4.5-27.2-9.4S10.2,91.9,2,87.6A38.5,38.5,0,0,0,0,99.8a39.1,39.1,0,0,0,9,24.8,69.9,69.9,0,0,1,18.6-3.8c10.1-.3,19.3,4.7,29.2,1.6,7.5-2.4,15.6-7.2,23.6-4.1,3.8,1.5,7.2,4.4,10.1,7.6a39.1,39.1,0,0,0,9.5-18.5C95.6,108.2,91.2,107,86.8,106.2Z" fill="#5b72b7"/><path d="M53.4,93.3c9.2.2,18.1-2.3,26.3-6,4.2-1.8,10.8-4.4,14.8-8.3a39,39,0,0,0-4.2-5.6c-1.9,2.2-6.8,4.2-8.7,5.3a71,71,0,0,1-11.7,5A47.9,47.9,0,0,1,45,85.3c-11.8-2.4-21.7-8.9-32.1-14.4a40.4,40.4,0,0,0-4.8,5.4c6,3.2,11.8,6.8,17.9,9.7C34.6,90.1,43.9,93.1,53.4,93.3Z" fill="#f6eeda"/><path d="M100.7,99.3c-2.5,1.3-5.4,1.5-9.4.7S82.5,98.4,78,98.6a57.2,57.2,0,0,0-14.3,2.5c-4.5,1.3-9.2,4-14,4.1-8.8.1-17.9-6.6-24.9-11.3S11.9,84.8,4.9,81.2A46.3,46.3,0,0,0,2,87.6c8.2,4.3,15.5,10,23.3,15S43,113.4,52.5,112c5.1-.8,9.8-3.3,14.8-4.6a44.4,44.4,0,0,1,19.5-1.2c4.4.8,8.8,2,13.2,1.2a38.4,38.4,0,0,0,.7-7.6Z" fill="#f2a072"/><path d="M80.4,118.3c-8-3.1-16.1,1.7-23.6,4.1-9.9,3.1-19.1-1.9-29.2-1.6A69.9,69.9,0,0,0,9,124.6a71.4,71.4,0,0,0,5.4,5.6,53.9,53.9,0,0,1,13.2-2.4c8.1-.2,15.7,3.5,23.8,2.8s13-4.3,19.8-5.8,10.4,1.8,14.3,6a38.6,38.6,0,0,0,5-4.9C87.6,122.7,84.2,119.8,80.4,118.3Z" fill="#f6eeda"/><path d="M50.3,44.2a20.6,20.6,0,0,1,9.3-11.5v-8a28.8,28.8,0,0,0-9.3,5.9,23.6,23.6,0,0,0-6.1,9.6c-.8,2.3-1.3,4-3.1,4.9V51a3.6,3.6,0,0,1-.2,1.1C45,51.5,48.3,49.7,50.3,44.2Z" fill="#f2a072"/></symbol></defs><title>stripe-vase</title><use width="100.7" height="149.63" transform="translate(58.7 25) scale(1.38)" xlink:href="#Stripe_vase"/></svg>