<svg xmlns="http://www.w3.org/2000/svg" width="256" height="256" viewBox="0 0 256 256"><title>tall-wave-vase</title><g id="stripe-vase"><path d="M88.1,143.8a53.8,53.8,0,0,0,3.6,8.2l1.9-39.1-3.1,7.8C87.8,128.2,85.8,135.9,88.1,143.8Z" fill="none"/><path d="M111.7,185.3c-.1-9.3-5.3-16.9-10-24.6s-7.7-13.8-8.3-21.8,1.7-15.6,4.5-22.9,6.9-15.5,8.3-23.9-1.5-18.2-4.5-26.8a125.5,125.5,0,0,1-4.9-15.8L96,65.3c.9,2.8,1.8,5.6,2.6,8.4a50.4,50.4,0,0,1,.2,24.7,109,109,0,0,1-5.2,14.5L91.7,152c2.5,4.4,5.4,8.5,7.8,12.9,4,7.1,6.4,14.8,5.9,23.1s-4,17.8-7.8,26.1l-5.3,11a21,21,0,0,0,3.8,4.1,168.8,168.8,0,0,1,6.9-15.5C107.3,204.9,111.8,195.3,111.7,185.3Z" fill="#203061"/><path d="M128.3,185.3c-.2-9.3-5.4-16.9-10-24.6s-7.7-13.8-8.4-21.8,1.8-15.6,4.6-22.9,6.9-15.5,8.3-23.9-1.5-18.2-4.6-26.8-6-17.3-6.5-26.6a81.6,81.6,0,0,1,.7-16.4h-7.2c-1.1,7.9-1.5,15.8.2,23.6,2,9.6,6.3,18.4,8.7,27.8a49.2,49.2,0,0,1,.3,24.7c-2,7.7-5.6,14.9-8.3,22.3s-4.8,15.2-2.4,23.1,7.5,14.1,11.4,21.1,6.3,14.8,5.8,23.1-4,17.8-7.8,26.1c-2.7,5.9-6.2,12.4-8.7,19.1a20.2,20.2,0,0,0,4.3.5h2.4a148.3,148.3,0,0,1,8.5-20C123.9,204.9,128.4,195.3,128.3,185.3Z" fill="#203061"/><path d="M159.5,22.3H121.8c-1.1,7.9-1.5,15.8.2,23.6,2,9.6,6.3,18.4,8.7,27.8a49.2,49.2,0,0,1,.2,24.7c-1.9,7.7-5.5,14.9-8.3,22.3s-4.7,15.2-2.3,23.1,7.5,14.1,11.3,21.1,6.4,14.8,5.9,23.1-4,17.8-7.8,26.1c-2.8,6-6.4,12.7-8.9,19.6h28.1a20,20,0,0,0,20-21Z" fill="#203061"/><path d="M90.9,168.7l-2.1,42.1c3.9-8,7.5-16.6,7.3-25.5C96.1,179.2,93.8,173.8,90.9,168.7Z" fill="#203061"/><path d="M120.9,188c.5-8.3-1.9-16-5.8-23.1s-9.1-13.4-11.4-21.1-.4-15.6,2.4-23.1,6.3-14.6,8.3-22.3a49.2,49.2,0,0,0-.3-24.7c-2.4-9.4-6.7-18.2-8.7-27.8-1.7-7.8-1.3-15.7-.2-23.6H98.1L96.8,49.5a125.5,125.5,0,0,0,4.9,15.8c3,8.6,6,17.6,4.5,26.8S101,108.2,97.9,116s-5.2,15-4.5,22.9,4.2,15.1,8.3,21.8,9.9,15.3,10,24.6-4.4,19.6-8.7,28.4a168.8,168.8,0,0,0-6.9,15.5,20.7,20.7,0,0,0,8.3,4c2.5-6.7,6-13.2,8.7-19.1C116.9,205.8,120.3,197.2,120.9,188Z" fill="#f09f72"/><path d="M137.5,188c.5-8.3-1.9-16-5.9-23.1s-9-13.4-11.3-21.1-.4-15.6,2.3-23.1,6.4-14.6,8.3-22.3a49.2,49.2,0,0,0-.2-24.7c-2.4-9.4-6.7-18.2-8.7-27.8-1.7-7.8-1.3-15.7-.2-23.6h-9.4a81.6,81.6,0,0,0-.7,16.4c.5,9.3,3.5,17.9,6.5,26.6s6.1,17.6,4.6,26.8-5.3,16.1-8.3,23.9-5.2,15-4.6,22.9,4.3,15.1,8.4,21.8,9.8,15.3,10,24.6-4.4,19.6-8.7,28.4a148.3,148.3,0,0,0-8.5,20h9.7c2.5-6.9,6.1-13.6,8.9-19.6C133.5,205.8,136.9,197.2,137.5,188Z" fill="#f09f72"/><path d="M105.4,188c.5-8.3-1.9-16-5.9-23.1-2.4-4.4-5.3-8.5-7.8-12.9l-.8,16.7c2.9,5.1,5.2,10.5,5.2,16.6.2,8.9-3.4,17.5-7.3,25.5v1.9a19.6,19.6,0,0,0,3.5,12.4l5.3-11C101.4,205.8,104.8,197.2,105.4,188Z" fill="#f09f72"/><path d="M98.8,98.4a50.4,50.4,0,0,0-.2-24.7c-.8-2.8-1.7-5.6-2.6-8.4l-2.4,47.6A109,109,0,0,0,98.8,98.4Z" fill="#f09f72"/></g></svg>